<?xml version="1.0" encoding="utf-8"?>
<!DOCTYPE svg PUBLIC "-//W3C//DTD SVG 1.1//EN" "http://www.w3.org/Graphics/SVG/1.1/DTD/svg11.dtd">
<svg version="1.1" id="Livello_1" xmlns="http://www.w3.org/2000/svg" xmlns:xlink="http://www.w3.org/1999/xlink" x="0px" y="0px"
	 width="2550px" height="1000px" viewBox="0 0 2550 1000" enable-background="new 0 0 2550 1000" xml:space="preserve">
<g>
	<g>
		<path fill="#2485D8" d="M769.21,311.2l-48.02,36.84c-26.49-34.49-58.3-60.64-95.41-78.44c-37.12-17.8-77.89-26.7-122.31-26.7
			c-48.57,0-93.54,11.67-134.94,34.98c-41.39,23.31-73.47,54.64-96.24,93.96c-22.77,39.32-34.15,83.54-34.15,132.66
			c0,74.23,25.45,136.18,76.37,185.85c50.91,49.67,115.13,74.5,192.68,74.5c85.27,0,156.6-33.39,214-100.17l48.02,36.42
			c-30.36,38.64-68.23,68.5-113.62,89.62c-45.39,21.11-96.1,31.66-152.11,31.66c-106.52,0-190.54-35.45-252.08-106.38
			C199.8,656.13,174,583.84,174,499.11c0-89.12,31.25-164.12,93.75-224.96c62.5-60.85,140.8-91.27,234.9-91.27
			c56.85,0,108.17,11.25,153.98,33.74C702.43,239.11,739.96,270.63,769.21,311.2z"/>
		<polygon fill="#2485D8" points="1093.04,198.2 1078.13,198.2 790.46,807.07 858.35,807.07 953.2,606.73 1148.67,606.73 
			1122.52,547.96 981.02,547.96 1085.35,327.56 1189.18,547.96 1215.41,606.73 1215.5,606.73 1311.26,807.07 1376.98,807.07 		"/>
		<path fill="#2485D8" d="M1378.5,693.66l51.74-31.05c36.42,67.05,78.51,100.58,126.24,100.58c20.42,0,39.6-4.76,57.54-14.28
			c17.94-9.52,31.59-22.28,40.97-38.29c9.38-16,14.07-32.97,14.07-50.91c0-20.42-6.89-40.43-20.69-60.02
			c-19.04-27.04-53.81-59.6-104.31-97.68c-50.78-38.35-82.37-66.09-94.79-83.19c-21.52-28.69-32.29-59.74-32.29-93.14
			c0-26.49,6.35-50.63,19.05-72.43c12.69-21.8,30.55-38.97,53.6-51.53c23.04-12.55,48.08-18.83,75.13-18.83
			c28.69,0,55.53,7.11,80.5,21.32c24.97,14.21,51.39,40.36,79.27,78.44l-49.67,37.67c-22.91-30.35-42.43-50.36-58.57-60.02
			c-16.13-9.65-33.74-14.49-52.77-14.49c-24.56,0-44.64,7.45-60.23,22.35c-15.59,14.9-23.38,33.26-23.38,55.05
			c0,13.24,2.75,26.08,8.27,38.49c5.52,12.42,15.59,25.94,30.22,40.56c8,7.74,34.21,28.02,78.65,60.85
			c52.7,38.91,88.84,73.55,108.44,103.89c19.6,30.36,29.4,60.85,29.4,91.48c0,44.16-16.77,82.51-50.29,115.07
			c-33.53,32.56-74.3,48.84-122.31,48.84c-36.98,0-70.51-9.87-100.58-29.59C1431.62,773.06,1403.89,740.01,1378.5,693.66z"/>
		<path fill="#2485D8" d="M1768.97,257.8v-59.6h333.61v59.6h-135.75v549.27h-62.1V257.8H1768.97z"/>
	</g>
	<g>
		<path fill="#2485D8" d="M2230.27,683.19l9.48,10c-7.08,7.2-12.44,15.08-16.1,23.65c-3.66,8.57-5.49,16.92-5.49,25.06
			c0,10.12,2.49,19.76,7.46,28.91c4.97,9.16,11.72,16.25,20.23,21.28c8.51,5.03,17.5,7.55,26.99,7.55c9.71,0,18.94-2.61,27.68-7.81
			c8.75-5.21,15.62-12.4,20.63-21.59c5-9.19,7.5-19.25,7.5-30.19c0-13.28-3.74-24.51-11.24-33.69c-7.48-9.19-17.2-14.63-29.13-16.32
			v41.15h-12.46v-55.63c19.95,0.12,35.79,6.04,47.52,17.77c11.73,11.73,17.59,27.42,17.59,47.08c0,23.87-8.13,42.77-24.4,56.69
			c-12.51,10.71-27,16.06-43.44,16.06c-12.23,0-23.61-3.07-34.14-9.21c-10.53-6.14-18.76-14.56-24.7-25.27
			c-5.94-10.71-8.91-22.82-8.91-36.33c0-10.94,1.97-21.24,5.93-30.89C2215.22,701.79,2221.56,692.37,2230.27,683.19z"/>
		<path fill="#2485D8" d="M2208.59,653.66v-25.71c0-14.33,0.59-24.04,1.76-29.13c1.76-7.66,5.52-13.9,11.29-18.69
			c5.77-4.79,12.88-7.2,21.31-7.2c7.03,0,13.21,1.65,18.54,4.96c5.33,3.31,9.36,8.03,12.08,14.17c2.72,6.14,4.12,14.63,4.17,25.45
			l59.94-46.42v15.96l-59.94,46.43v7.29h59.94v12.9H2208.59z M2221.23,640.76h43.88l0.18-22.24c0-8.61-0.82-14.98-2.46-19.11
			c-1.64-4.13-4.26-7.35-7.86-9.67c-3.6-2.31-7.62-3.47-12.07-3.47c-4.33,0-8.26,1.17-11.8,3.51c-3.54,2.35-6.07,5.42-7.59,9.23
			c-1.52,3.81-2.28,10.14-2.28,18.98V640.76z"/>
		<path fill="#2485D8" d="M2205.35,488.99c0-19.55,6.52-35.91,19.57-49.09c13.05-13.17,29.11-19.76,48.18-19.76
			c18.9,0,34.92,6.57,48.09,19.71c13.16,13.14,19.74,29.17,19.74,48.08c0,19.14-6.55,35.3-19.66,48.47
			c-13.1,13.17-28.96,19.76-47.56,19.76c-12.4,0-23.9-3-34.49-9c-10.59-6-18.88-14.18-24.88-24.54
			C2208.35,512.26,2205.35,501.05,2205.35,488.99z M2217.89,488.41c0,9.55,2.49,18.61,7.47,27.16c4.98,8.55,11.68,15.23,20.11,20.04
			c8.43,4.8,17.83,7.21,28.19,7.21c15.34,0,28.29-5.31,38.86-15.95c10.57-10.63,15.85-23.45,15.85-38.46
			c0-10.02-2.43-19.29-7.29-27.82c-4.86-8.52-11.51-15.17-19.94-19.95c-8.43-4.78-17.8-7.17-28.11-7.17
			c-10.25,0-19.51,2.39-27.8,7.17c-8.28,4.77-14.91,11.5-19.89,20.17C2220.38,469.49,2217.89,478.69,2217.89,488.41z"/>
		<path fill="#2485D8" d="M2208.59,398.09v-12.9h77.93c9.25,0,15.01-0.18,17.29-0.53c5.09-0.65,9.35-2.14,12.77-4.48
			c3.42-2.34,6.29-5.94,8.6-10.79c2.31-4.86,3.47-9.74,3.47-14.66c0-4.27-0.91-8.36-2.72-12.28c-1.81-3.92-4.33-7.2-7.54-9.83
			c-3.21-2.64-7.11-4.57-11.67-5.79c-3.28-0.88-10-1.32-20.18-1.32h-77.93v-12.9h77.93c11.53,0,20.84,1.12,27.95,3.37
			c7.11,2.26,13.29,6.76,18.56,13.52c5.27,6.76,7.9,14.93,7.9,24.53c0,10.42-2.49,19.33-7.46,26.77
			c-4.97,7.43-11.55,12.4-19.74,14.92c-5.03,1.58-14.1,2.37-27.2,2.37H2208.59z"/>
		<path fill="#2485D8" d="M2208.59,284.15v-25.71c0-14.74,0.65-24.69,1.93-29.83c1.81-7.37,5.54-13.4,11.19-18.08
			c5.64-4.68,12.74-7.02,21.28-7.02c8.6,0,15.7,2.28,21.29,6.85c5.59,4.56,9.34,10.85,11.27,18.87c1.4,5.85,2.11,16.79,2.11,32.82
			v9.21h60.03v12.9H2208.59z M2221.23,271.25h43.79l0.26-21.85c0-8.83-0.8-15.3-2.41-19.39c-1.6-4.09-4.2-7.31-7.79-9.65
			c-3.59-2.34-7.61-3.51-12.04-3.51c-4.32,0-8.27,1.17-11.87,3.51c-3.59,2.34-6.15,5.43-7.67,9.26c-1.52,3.83-2.28,10.11-2.28,18.83
			V271.25z"/>
	</g>
	<g>
		<path fill="#2485D8" d="M2438.65,116.97c-10.23-10.24-22.58-15.35-37.04-15.35c-14.45,0-26.8,5.12-37.03,15.35
			c-10.24,10.23-15.35,22.58-15.35,37.04c0,14.45,5.12,26.8,15.35,37.03c10.23,10.24,22.58,15.35,37.03,15.35
			c14.46,0,26.8-5.12,37.04-15.35c10.24-10.23,15.35-22.58,15.35-37.03C2454,139.55,2448.88,127.2,2438.65,116.97z M2430.47,183.01
			c-7.97,8.08-17.59,12.11-28.86,12.11c-11.26,0-20.88-4.03-28.86-12.11c-7.97-8.07-11.96-17.74-11.96-29.01
			c0-11.26,3.98-20.93,11.96-29.01c7.97-8.07,17.6-12.11,28.86-12.11c11.27,0,20.89,4.04,28.86,12.11
			c7.97,8.08,11.96,17.75,11.96,29.01C2442.43,165.27,2438.44,174.94,2430.47,183.01z"/>
		<path fill="#2485D8" d="M2395.98,158.52h4.12l12.63,15.89h13.12l-15.74-18.66c2.72-1.14,4.93-2.72,6.66-4.73
			c1.73-2.01,2.59-4.63,2.59-7.85c0-2.38-0.43-4.34-1.31-5.88c-0.87-1.54-2.28-2.89-4.22-4.02c-1.75-0.98-3.5-1.58-5.28-1.81
			c-1.78-0.24-4.12-0.35-7.04-0.35h-15.79v43.31h10.26V158.52z M2395.98,138.61h3.22c1.5,0,2.75,0.07,3.72,0.2
			c0.98,0.13,1.85,0.42,2.62,0.85c0.88,0.47,1.5,1.08,1.86,1.84c0.37,0.76,0.55,1.58,0.55,2.49c0,1.24-0.17,2.28-0.53,3.12
			c-0.35,0.84-0.89,1.53-1.63,2.07c-0.74,0.6-1.76,1.03-3.07,1.28c-1.3,0.25-2.73,0.38-4.27,0.38h-2.47V138.61z"/>
	</g>
</g>
</svg>
